<?xml version="1.0" encoding="UTF-8" standalone="no"?>
<!-- Created with Inkscape (http://www.inkscape.org/) -->

<svg
   xmlns:dc="http://purl.org/dc/elements/1.1/"
   xmlns:cc="http://creativecommons.org/ns#"
   xmlns:rdf="http://www.w3.org/1999/02/22-rdf-syntax-ns#"
   xmlns:svg="http://www.w3.org/2000/svg"
   xmlns="http://www.w3.org/2000/svg"
   xmlns:xlink="http://www.w3.org/1999/xlink"
   xmlns:sodipodi="http://sodipodi.sourceforge.net/DTD/sodipodi-0.dtd"
   xmlns:inkscape="http://www.inkscape.org/namespaces/inkscape"
   width="2328"
   height="1144"
   id="svg2"
   sodipodi:version="0.32"
   inkscape:version="0.48.4 r9939"
   sodipodi:docname="logoblack.png.svg"
   inkscape:output_extension="org.inkscape.output.svg.inkscape"
   version="1.0"
   inkscape:export-filename="C:\Documents and Settings\MRT\Pulpit\tomek\codingInertia\logo03.png"
   inkscape:export-xdpi="90"
   inkscape:export-ydpi="90">
  <defs
     id="defs4">
    <linearGradient
       id="linearGradient3315">
      <stop
         style="stop-color:#4d4d4d;stop-opacity:1;"
         offset="0"
         id="stop3317" />
      <stop
         style="stop-color:#000000;stop-opacity:1;"
         offset="1"
         id="stop3319" />
    </linearGradient>
    <inkscape:perspective
       sodipodi:type="inkscape:persp3d"
       inkscape:vp_x="0 : 526.18109 : 1"
       inkscape:vp_y="0 : 1000 : 0"
       inkscape:vp_z="744.09448 : 526.18109 : 1"
       inkscape:persp3d-origin="372.04724 : 350.78739 : 1"
       id="perspective10" />
    <linearGradient
       inkscape:collect="always"
       xlink:href="#linearGradient3315"
       id="linearGradient3321"
       x1="44"
       y1="45"
       x2="452"
       y2="281"
       gradientUnits="userSpaceOnUse"
       gradientTransform="matrix(4.7255242,0,0,3.0639874,0,-763.67532)" />
  </defs>
  <sodipodi:namedview
     id="base"
     pagecolor="#ffffff"
     bordercolor="#666666"
     borderopacity="1.0"
     gridtolerance="10000"
     guidetolerance="10"
     objecttolerance="10"
     inkscape:pageopacity="0.0"
     inkscape:pageshadow="2"
     inkscape:zoom="0.1767767"
     inkscape:cx="268.5"
     inkscape:cy="170.56854"
     inkscape:document-units="px"
     inkscape:current-layer="layer1"
     showgrid="false"
     inkscape:window-width="1930"
     inkscape:window-height="1026"
     inkscape:window-x="1681"
     inkscape:window-y="-8"
     inkscape:window-maximized="1" />
  <metadata
     id="metadata7">
    <rdf:RDF>
      <cc:Work
         rdf:about="">
        <dc:format>image/svg+xml</dc:format>
        <dc:type
           rdf:resource="http://purl.org/dc/dcmitype/StillImage" />
      </cc:Work>
      <cc:Work
         rdf:about="">
        <dc:format>image/svg+xml</dc:format>
        <dc:type
           rdf:resource="http://purl.org/dc/dcmitype/StillImage" />
      </cc:Work>
    </rdf:RDF>
  </metadata>
  <g
     inkscape:label="Layer 1"
     inkscape:groupmode="layer"
     id="layer1"
     transform="translate(0,774)">
    <rect
       style="fill:url(#linearGradient3321);fill-opacity:1;fill-rule:evenodd;stroke:none"
       id="rect2517"
       width="2339.1345"
       height="1133.6753"
       x="0"
       y="-763.67529" />
    <path
       style="font-size:72px;font-style:normal;font-variant:normal;font-weight:normal;font-stretch:normal;text-align:start;line-height:125%;writing-mode:lr-tb;text-anchor:start;fill:#ffffff;fill-opacity:1;stroke:none;font-family:UltraCondensedSansSerif;-inkscape-font-specification:UltraCondensedSansSerif"
       d="m 548.48524,-64.509861 c -1.3e-4,-3.8945 -1.38347,-7.952661 -4.15,-12.174285 -2.76672,-4.221493 -7.6138,-6.332272 -14.54086,-6.332371 -6.44868,9.9e-5 -11.17237,2.029064 -14.1713,6.087127 -2.99899,4.058128 -4.49855,8.198003 -4.49855,12.419529 0,3.894566 1.49956,7.870913 4.49855,11.929008 2.99893,4.058127 7.72262,6.087126 14.1713,6.087126 6.46247,0 11.07719,-2.028999 13.84389,-6.087126 2.76659,-4.058095 4.38224,-8.034442 4.84697,-11.929008 l 0,0 z m 0,91.091451 c 0.92919,-3.904567 -0.22216,-7.967563 -3.45313,-12.189155 -3.23129,-4.221657 -8.31067,-6.3324028 -15.23773,-6.3324028 -6.44868,0 -11.17237,2.1107458 -14.1713,6.3324028 -2.99899,4.221592 -4.49855,8.284588 -4.49855,12.189155 0,3.8945 1.49956,7.870847 4.49855,11.928974 2.99893,4.058063 7.72262,6.087028 14.1713,6.087127 2.30902,0.326992 3.92464,0.326992 4.84691,0 0.92215,-0.326993 1.84785,-0.65415 2.77722,-0.981109 -1.2e-4,0.654018 -0.34483,2.036432 -1.0349,4.14731 -0.68992,2.110714 -1.73185,4.142212 -3.12564,6.094561 l -6.23028,7.298643 0,3.403978 c 7.39177,-3.567606 12.69984,-8.760338 15.92417,-15.578263 3.22422,-6.818089 5.06865,-14.285163 5.53338,-22.401221 l 0,0 z"
       id="text2413"
       inkscape:connector-curvature="0" />
    <path
       style="font-size:72px;font-style:normal;font-variant:normal;font-weight:normal;font-stretch:normal;text-align:start;line-height:125%;writing-mode:lr-tb;text-anchor:start;fill:#ffffff;fill-opacity:1;stroke:none;font-family:UltraCondensedSansSerif;-inkscape-font-specification:UltraCondensedSansSerif"
       d="m 530.6802,-160.83309 c 3.22408,-6.4911 6.56799,-11.84733 10.03181,-16.06882 3.46335,-4.22169 8.42649,-8.44328 14.88933,-12.66481 6.44831,-3.89466 12.4427,-6.57277 17.98339,-8.03437 5.54017,-1.46183 12.23148,-2.19266 20.07419,-2.19263 l 173.01185,0 c 0.46403,-3e-5 2.6571,-0.0819 6.5788,-0.24508 3.92075,-0.1635 8.41913,-0.81275 13.49543,-1.94735 5.07531,-1.13474 10.3797,-3.0028 15.9136,-5.60404 5.53282,-2.60139 10.37628,-6.33494 14.5303,-11.2006 8.30649,-10.39554 12.11162,-20.46392 11.41514,-30.20523 -0.6974,-9.74145 -4.04493,-19.31934 -10.04239,-28.73359 -4.8e-4,0.65395 0.11583,2.92832 0.34837,6.82286 0.23211,3.89456 -0.69035,9.00808 -2.76662,15.34049 -2.07719,6.33236 -6.11464,11.77287 -12.1121,16.32158 -3.2247,2.59631 -7.14238,4.38009 -11.75309,5.35127 -4.61149,0.97114 -9.45854,1.45672 -14.54085,1.45672 l -174.3846,0 c -0.92954,0 -3.12252,0.0819 -6.57884,0.24542 -3.45672,0.16317 -7.61026,0.56974 -12.46051,1.21891 -4.85073,0.64896 -9.92643,1.7861 -15.22723,3.41146 -5.30128,1.62512 -9.79624,3.89943 -13.48488,6.82289 -6.46284,4.54858 -11.65472,9.58274 -15.57574,15.10264 -3.92138,5.51972 -7.03655,12.17419 -9.34539,19.96342 -2.77385,-7.78923 -5.88908,-14.11917 -9.34545,-18.98975 -3.45679,-4.8708 -8.41638,-9.74394 -14.87872,-14.61955 -4.15374,-3.56761 -9.34563,-6.24575 -15.57579,-8.03445 -6.23046,-1.78875 -12.22838,-3.0077 -17.9939,-3.65666 -5.7658,-0.64917 -10.72539,-1.05551 -14.87872,-1.21891 -4.15368,-0.16383 -6.23045,-0.24542 -6.23028,-0.24542 l -212.44224,0 c -8.30694,0 -15.92409,-2.75988 -22.85138,-8.27965 -3.68884,-2.92345 -6.45548,-6.41421 -8.30008,-10.47224 -1.84431,-4.0581 -3.22763,-7.95269 -4.14995,-11.68373 -0.9221,-3.73104 -1.38326,-7.0583 -1.38332,-9.9817 6e-5,-2.92341 6e-5,-4.54864 0,-4.8756 -5.99787,9.41425 -9.11304,18.99214 -9.34545,28.73359 -0.23202,9.74131 3.8052,19.80969 12.11208,30.20523 4.15362,5.19269 8.65211,9.16903 13.49553,11.929 4.84341,2.75986 9.57071,4.62784 14.18177,5.60404 4.61112,0.97601 8.53593,1.46412 11.77419,1.46416 2.75966,-4e-5 4.60414,-4e-5 5.53333,0 l 217.29961,0 c 7.37775,-4e-5 14.06559,0.64901 20.06375,1.94728 5.99775,1.2981 12.22809,4.058 18.69085,8.27972 6.46234,3.89447 11.3093,8.03428 14.54077,12.4195 3.23117,4.38502 6.45891,9.82303 9.6834,16.3141 l 0,0 z"
       id="text2417"
       inkscape:connector-curvature="0" />
    <path
       style="font-size:72px;font-style:normal;font-variant:normal;font-weight:normal;font-stretch:normal;text-align:start;line-height:125%;writing-mode:lr-tb;text-anchor:start;fill:#ffffff;fill-opacity:1;stroke:none;font-family:UltraCondensedSansSerif;-inkscape-font-specification:UltraCondensedSansSerif"
       d="m 1187.1156,-160.83309 c 3.2241,-6.4911 6.568,-11.84733 10.0318,-16.06882 3.4634,-4.22169 8.4266,-8.44328 14.8894,-12.66481 6.4483,-3.89466 12.4428,-6.57277 17.9834,-8.03437 5.5401,-1.46183 12.2315,-2.19266 20.0741,-2.19263 l 173.0119,0 c 0.464,-3e-5 2.6571,-0.0819 6.5788,-0.24508 3.9208,-0.1635 8.4192,-0.81275 13.4954,-1.94735 5.0753,-1.13474 10.3798,-3.0028 15.9136,-5.60404 5.5329,-2.60139 10.3763,-6.33494 14.5304,-11.2006 8.3064,-10.39554 12.1116,-20.46392 11.4151,-30.20523 -0.6974,-9.74145 -4.0449,-19.31934 -10.0424,-28.73359 -5e-4,0.65395 0.1158,2.92832 0.3484,6.82286 0.2321,3.89456 -0.6905,9.00808 -2.7668,15.34049 -2.0772,6.33236 -6.1146,11.77287 -12.1121,16.32158 -3.2247,2.59631 -7.1423,4.38009 -11.753,5.35127 -4.6116,0.97114 -9.4585,1.45672 -14.5408,1.45672 l -174.3847,0 c -0.9295,0 -3.1224,0.0819 -6.5787,0.24542 -3.4569,0.16317 -7.6104,0.56974 -12.4606,1.21891 -4.8508,0.64896 -9.9265,1.7861 -15.2273,3.41146 -5.3013,1.62512 -9.7962,3.89943 -13.4848,6.82289 -6.4629,4.54858 -11.6548,9.58274 -15.5758,15.10264 -3.9214,5.51972 -7.0365,12.17419 -9.3454,19.96342 -2.7738,-7.78923 -5.8891,-14.11917 -9.3455,-18.98975 -3.4567,-4.8708 -8.4163,-9.74394 -14.8787,-14.61955 -4.1537,-3.56761 -9.3456,-6.24575 -15.5757,-8.03445 -6.2304,-1.78875 -12.2285,-3.0077 -17.9939,-3.65666 -5.7658,-0.64917 -10.7254,-1.05551 -14.8788,-1.21891 -4.1537,-0.16383 -6.2303,-0.24542 -6.2303,-0.24542 l -212.44222,0 c -8.30692,0 -15.92406,-2.75988 -22.85141,-8.27965 -3.68881,-2.92345 -6.45548,-6.41421 -8.29996,-10.47224 -1.84443,-4.0581 -3.22772,-7.95269 -4.15004,-11.68373 -0.92211,-3.73104 -1.38317,-7.0583 -1.38334,-9.9817 1.7e-4,-2.92341 1.7e-4,-4.54864 0,-4.8756 -5.99785,9.41425 -9.11293,18.99214 -9.34547,28.73359 -0.2321,9.74131 3.80522,19.80969 12.11223,30.20523 4.15363,5.19269 8.65196,9.16903 13.49538,11.929 4.84342,2.75986 9.57084,4.62784 14.18181,5.60404 4.61123,0.97601 8.53591,1.46412 11.77418,1.46416 2.75967,-4e-5 4.60414,-4e-5 5.53334,0 l 217.2997,0 c 7.3777,-4e-5 14.0655,0.64901 20.0636,1.94728 5.9978,1.2981 12.2281,4.058 18.6909,8.27972 6.4624,3.89447 11.3093,8.03428 14.5409,12.4195 3.2311,4.38502 6.4588,9.82303 9.6833,16.3141 l 0,0 z"
       id="text2421"
       inkscape:connector-curvature="0" />
    <path
       style="font-size:72px;font-style:normal;font-variant:normal;font-weight:normal;font-stretch:normal;text-align:start;line-height:125%;writing-mode:lr-tb;text-anchor:start;fill:#ffffff;fill-opacity:1;stroke:none;font-family:UltraCondensedSansSerif;-inkscape-font-specification:UltraCondensedSansSerif"
       d="m 1843.5506,-160.83309 c 3.2241,-6.4911 6.5681,-11.84733 10.0319,-16.06882 3.4634,-4.22169 8.4265,-8.44328 14.8893,-12.66481 6.4483,-3.89466 12.4427,-6.57277 17.9833,-8.03437 5.5401,-1.46183 12.2315,-2.19266 20.0743,-2.19263 l 173.0119,0 c 0.464,-3e-5 2.657,-0.0819 6.5787,-0.24508 3.9208,-0.1635 8.4192,-0.81275 13.4954,-1.94735 5.0753,-1.13474 10.3798,-3.0028 15.9136,-5.60404 5.5329,-2.60139 10.3764,-6.33494 14.5303,-11.2006 8.3066,-10.39554 12.1116,-20.46392 11.4152,-30.20523 -0.6975,-9.74145 -4.0449,-19.31934 -10.0423,-28.73359 -6e-4,0.65395 0.1158,2.92832 0.3483,6.82286 0.2322,3.89456 -0.6904,9.00808 -2.7666,15.34049 -2.0773,6.33236 -6.1146,11.77287 -12.1121,16.32158 -3.2248,2.59631 -7.1424,4.38009 -11.7531,5.35127 -4.6115,0.97114 -9.4585,1.45672 -14.5409,1.45672 l -174.3846,0 c -0.9295,0 -3.1224,0.0819 -6.5788,0.24542 -3.4568,0.16317 -7.6103,0.56974 -12.4605,1.21891 -4.8508,0.64896 -9.9265,1.7861 -15.2272,3.41146 -5.3013,1.62512 -9.7962,3.89943 -13.485,6.82289 -6.4627,4.54858 -11.6546,9.58274 -15.5756,15.10264 -3.9215,5.51972 -7.0367,12.17419 -9.3455,19.96342 -2.774,-7.78923 -5.889,-14.11917 -9.3454,-18.98975 -3.4568,-4.8708 -8.4164,-9.74394 -14.8788,-14.61955 -4.1536,-3.56761 -9.3455,-6.24575 -15.5757,-8.03445 -6.2304,-1.78875 -12.2284,-3.0077 -17.9939,-3.65666 -5.7658,-0.64917 -10.7254,-1.05551 -14.8788,-1.21891 -4.1536,-0.16383 -6.2304,-0.24542 -6.2302,-0.24542 l -212.4422,0 c -8.307,0 -15.9242,-2.75988 -22.8515,-8.27965 -3.6888,-2.92345 -6.4554,-6.41421 -8.3,-10.47224 -1.8443,-4.0581 -3.2277,-7.95269 -4.15,-11.68373 -0.9221,-3.73104 -1.3832,-7.0583 -1.3833,-9.9817 10e-5,-2.92341 10e-5,-4.54864 0,-4.8756 -5.9979,9.41425 -9.113,18.99214 -9.3454,28.73359 -0.2322,9.74131 3.8051,19.80969 12.112,30.20523 4.1537,5.19269 8.6522,9.16903 13.4954,11.929 4.8436,2.75986 9.5709,4.62784 14.1819,5.60404 4.6112,0.97601 8.5359,1.46412 11.7742,1.46416 2.7597,-4e-5 4.6042,-4e-5 5.5333,0 l 217.2997,0 c 7.3777,-4e-5 14.0656,0.64901 20.0637,1.94728 5.9977,1.2981 12.228,4.058 18.6908,8.27972 6.4624,3.89447 11.3094,8.03428 14.5409,12.4195 3.231,4.38502 6.4589,9.82303 9.6833,16.3141 l 0,0 z"
       id="text2425"
       inkscape:connector-curvature="0" />
    <path
       style="font-size:72px;font-style:normal;font-variant:normal;font-weight:normal;font-stretch:normal;text-align:start;line-height:125%;writing-mode:lr-tb;text-anchor:start;fill:#ffffff;fill-opacity:1;stroke:none;font-family:UltraCondensedSansSerif;-inkscape-font-specification:UltraCondensedSansSerif"
       d="m 1209.1308,-567.20268 -516.96594,0 c -0.45003,8e-5 -2.52682,8e-5 -6.23025,0 -3.68848,8e-5 -8.07084,0.48567 -13.14702,1.45676 -5.07531,0.97126 -10.37982,2.67575 -15.91359,5.11347 -5.53282,2.43796 -10.37629,6.0897 -14.53031,10.95539 -3.68847,4.22164 -6.33887,9.74388 -7.95155,16.56679 -1.61163,6.82297 -2.64997,13.39813 -3.11517,19.72558 -0.46404,6.32749 -0.5803,11.84727 -0.34837,16.55933 0.23253,4.71218 0.3488,7.06829 0.34837,7.0682 l 9.69397,0 c 4.8e-4,9e-5 -0.11583,-1.37988 -0.34837,-4.1398 -0.2321,-2.75986 -0.003,-6.08961 0.68646,-9.98917 0.69035,-3.8995 1.95755,-8.12105 3.80141,-12.66481 1.84504,-4.5436 5.07631,-8.76273 9.69402,-12.65732 3.2247,-2.6062 7.25848,-4.31318 12.10147,-5.12094 4.84393,-0.80754 9.807,-1.21139 14.88931,-1.21143 l 537.72656,0 c 8.7576,4e-5 16.3676,2.59637 22.8303,7.78909 3.6888,2.9235 6.4555,6.496 8.3,10.71751 1.8444,4.22164 3.2277,8.27973 4.15,12.17427 0.9221,3.89464 1.4994,7.30363 1.7318,10.22696 0.2321,2.92346 0.3484,4.54868 0.3484,4.87564 l 9.6938,0 c 0,9e-5 0.1159,-2.19252 0.3484,-6.57765 0.2321,-4.38511 0.1158,-9.66204 -0.3484,-15.83095 -0.4646,-6.16887 -1.6193,-12.66228 -3.4636,-19.48032 -1.8446,-6.81792 -4.8436,-12.82575 -8.997,-18.02356 -4.1536,-5.19765 -8.7682,-9.0154 -13.8438,-11.45335 -5.0759,-2.43774 -9.8031,-4.14222 -14.1819,-5.11348 -4.3788,-0.97109 -8.1839,-1.37489 -11.4151,-1.21143 -3.2314,0.16366 -5.0793,0.24551 -5.5439,0.24508 l 0,0 z"
       id="text2429"
       inkscape:connector-curvature="0" />
    <path
       style="font-size:72px;font-style:normal;font-variant:normal;font-weight:normal;font-stretch:normal;text-align:start;line-height:125%;writing-mode:lr-tb;text-anchor:start;fill:#ffffff;fill-opacity:1;stroke:none;font-family:UltraCondensedSansSerif;-inkscape-font-specification:UltraCondensedSansSerif"
       d="m 1646.7542,-712.18431 -516.9659,0 c -0.45,9e-5 -2.5268,9e-5 -6.2303,0 -3.6884,9e-5 -8.0706,0.48568 -13.1469,1.45673 -5.0752,0.9713 -10.3797,2.67574 -15.9137,5.11352 -5.5327,2.43787 -10.3763,6.0897 -14.5303,10.9553 -3.6883,4.22172 -6.3388,9.74395 -7.9515,16.56678 -1.6116,6.82305 -2.65,13.39822 -3.1151,19.72562 -0.464,6.32746 -0.5803,11.84727 -0.3483,16.55938 0.2325,4.71218 0.3488,7.06821 0.3483,7.06821 l 9.6939,0 c 5e-4,0 -0.1158,-1.37997 -0.3484,-4.13984 -0.2321,-2.75987 -0,-6.08957 0.6864,-9.98913 0.6904,-3.8995 1.9576,-8.12114 3.8016,-12.66482 1.8449,-4.54364 5.0761,-8.76272 9.6938,-12.65736 3.2247,-2.60624 7.2587,-4.31322 12.1015,-5.12089 4.844,-0.80764 9.8071,-1.21148 14.8895,-1.21152 l 537.7265,0 c 8.7574,4e-5 16.3675,2.59645 22.8302,7.78917 3.6888,2.92342 6.4555,6.49592 8.3001,10.71751 1.8443,4.22164 3.2276,8.27973 4.1499,12.17428 0.9221,3.89455 1.4994,7.30354 1.7318,10.22696 0.2321,2.9234 0.3484,4.54859 0.3484,4.87564 l 9.6938,0 c 0,0 0.1163,-2.19253 0.3484,-6.57767 0.2321,-4.38509 0.1158,-9.66212 -0.3484,-15.83102 -0.4646,-6.16887 -1.6193,-12.66228 -3.4636,-19.48032 -1.8445,-6.81792 -4.8436,-12.82575 -8.9969,-18.02352 -4.1536,-5.19764 -8.7682,-9.01544 -13.8439,-11.45331 -5.0759,-2.43773 -9.8031,-4.14221 -14.1818,-5.11347 -4.3789,-0.9711 -8.184,-1.37498 -11.4153,-1.21152 -3.2313,0.16366 -5.0792,0.24551 -5.5438,0.24551 l 0,0 z"
       id="text2433"
       inkscape:connector-curvature="0" />
    <path
       style="font-size:72px;font-style:normal;font-variant:normal;font-weight:normal;font-stretch:normal;text-align:start;line-height:125%;writing-mode:lr-tb;text-anchor:start;fill:#ffffff;fill-opacity:1;stroke:none;font-family:UltraCondensedSansSerif;-inkscape-font-specification:UltraCondensedSansSerif"
       d="m 771.50714,-422.22097 -516.96595,0 c -0.45006,6e-5 -2.52684,6e-5 -6.23022,0 -3.68844,6e-5 -8.07075,0.48565 -13.14699,1.45673 -5.07531,0.97127 -10.37983,2.67571 -15.91362,5.11351 -5.53281,2.43784 -10.37628,6.0897 -14.53031,10.9553 -3.68832,4.22169 -6.3389,9.74395 -7.95155,16.56678 -1.6116,6.82306 -2.64993,13.3982 -3.11505,19.72567 -0.46401,6.3274 -0.58031,11.84723 -0.34828,16.55931 0.23258,4.71217 0.34889,7.06823 0.34828,7.06823 l 9.69387,0 c 4.7e-4,0 -0.11571,-1.37998 -0.34829,-4.13984 -0.23202,-2.75986 -0.003,-6.0896 0.68643,-9.98912 0.69038,-3.89954 1.95752,-8.12116 3.80142,-12.66485 1.845,-4.54362 5.07629,-8.76271 9.69398,-12.65733 3.22472,-2.60628 7.25861,-4.31325 12.1015,-5.12093 4.84394,-0.80761 9.80697,-1.21145 14.88937,-1.21152 l 537.72648,0 c 8.75747,7e-5 16.3676,2.59647 22.83027,7.78921 3.68877,2.92338 6.45549,6.4959 8.29996,10.71748 1.84443,4.22166 3.22772,8.27972 4.15005,12.17429 0.92206,3.8946 1.49934,7.30355 1.73175,10.22697 0.2321,2.92339 0.34837,4.54859 0.34837,4.87564 l 9.69389,0 c -1.3e-4,0 0.11583,-2.19253 0.34837,-6.57768 0.2321,-4.38509 0.11584,-9.6621 -0.34837,-15.83104 -0.4646,-6.16884 -1.61929,-12.66228 -3.46359,-19.48023 -1.8446,-6.81799 -4.84359,-12.8258 -8.99693,-18.0236 -4.15359,-5.19764 -8.76832,-9.01542 -13.84393,-11.45329 -5.07587,-2.43774 -9.80311,-4.14222 -14.18176,-5.11349 -4.37895,-0.97111 -8.18395,-1.37498 -11.41526,-1.21152 -3.23136,0.1635 -5.07933,0.24542 -5.54384,0.24542 l 0,0 z"
       id="text2409"
       inkscape:connector-curvature="0" />
    <path
       style="font-size:72px;font-style:normal;font-variant:normal;font-weight:normal;font-stretch:normal;text-align:start;line-height:125%;writing-mode:lr-tb;text-anchor:start;fill:#ffffff;fill-opacity:1;stroke:none;font-family:UltraCondensedSansSerif;-inkscape-font-specification:UltraCondensedSansSerif"
       d="m 2084.3779,-422.22097 -516.9659,0 c -0.4501,6e-5 -2.5269,6e-5 -6.2303,0 -3.6884,6e-5 -8.0707,0.48565 -13.147,1.45673 -5.0752,0.97127 -10.3798,2.67571 -15.9136,5.11351 -5.5328,2.43784 -10.3763,6.0897 -14.5303,10.9553 -3.6884,4.22169 -6.3388,9.74395 -7.9515,16.56678 -1.6116,6.82306 -2.65,13.3982 -3.1151,19.72567 -0.464,6.3274 -0.5803,11.84723 -0.3484,16.55931 0.2326,4.71217 0.3488,7.06823 0.3484,7.06823 l 9.6938,0 c 5e-4,0 -0.1158,-1.37998 -0.3483,-4.13984 -0.2321,-2.75986 0,-6.0896 0.6863,-9.98912 0.6905,-3.89954 1.9575,-8.12116 3.8015,-12.66485 1.845,-4.54362 5.0763,-8.76271 9.6939,-12.65733 3.2248,-2.60628 7.2586,-4.31325 12.1015,-5.12093 4.844,-0.80761 9.807,-1.21145 14.8893,-1.21152 l 537.7265,0 c 8.7576,7e-5 16.3677,2.59647 22.8304,7.78921 3.6888,2.92338 6.4554,6.4959 8.2999,10.71748 1.8444,4.22166 3.2278,8.27972 4.1501,12.17429 0.9221,3.8946 1.4994,7.30355 1.7318,10.22697 0.2321,2.92339 0.3484,4.54859 0.3484,4.87564 l 9.6938,0 c -1e-4,0 0.1163,-2.19253 0.3484,-6.57768 0.2321,-4.38509 0.1158,-9.6621 -0.3484,-15.83104 -0.4646,-6.16884 -1.6193,-12.66228 -3.4636,-19.48023 -1.8446,-6.81799 -4.8435,-12.8258 -8.9969,-18.0236 -4.1536,-5.19764 -8.7684,-9.01542 -13.8439,-11.45329 -5.0759,-2.43774 -9.8032,-4.14222 -14.1819,-5.11349 -4.3789,-0.97111 -8.1838,-1.37498 -11.4151,-1.21152 -3.2314,0.1635 -5.0794,0.24542 -5.5439,0.24542 l 0,0 z"
       id="text2437"
       inkscape:connector-curvature="0" />
    <path
       style="font-size:72px;font-style:normal;font-variant:normal;font-weight:normal;font-stretch:normal;text-align:start;line-height:125%;writing-mode:lr-tb;text-anchor:start;fill:#ffffff;fill-opacity:1;stroke:none;font-family:UltraCondensedSansSerif;-inkscape-font-specification:UltraCondensedSansSerif"
       d="m 1201.21,-64.509861 c 0,-3.8945 -1.3834,-7.952661 -4.1499,-12.174285 -2.7668,-4.221493 -7.6137,-6.332272 -14.5409,-6.332371 -6.4485,9.9e-5 -11.1723,2.029064 -14.1712,6.087127 -2.9991,4.058128 -4.4985,8.198003 -4.4985,12.419529 0,3.894566 1.4994,7.870913 4.4985,11.929008 2.9989,4.058127 7.7227,6.087126 14.1712,6.087126 6.4626,0 11.0772,-2.028999 13.8439,-6.087126 2.7666,-4.058095 4.3822,-8.034442 4.8469,-11.929008 l 0,0 z m 0,91.091451 c 0.9292,-3.904567 -0.2222,-7.967563 -3.453,-12.189155 -3.2314,-4.221657 -8.3106,-6.3324028 -15.2378,-6.3324028 -6.4485,0 -11.1723,2.1107458 -14.1712,6.3324028 -2.9991,4.221592 -4.4985,8.284588 -4.4985,12.189155 0,3.8945 1.4994,7.870847 4.4985,11.928974 2.9989,4.058063 7.7227,6.087028 14.1712,6.087127 2.309,0.326992 3.9247,0.326992 4.847,0 0.9221,-0.326993 1.8478,-0.65415 2.7772,-0.981109 0,0.654018 -0.3449,2.036432 -1.0349,4.14731 -0.69,2.110714 -1.7318,4.142212 -3.1257,6.094561 l -6.2303,7.298643 0,3.403978 c 7.3919,-3.567606 12.6999,-8.760338 15.9242,-15.578263 3.2242,-6.818089 5.0686,-14.285163 5.5333,-22.401221 l 0,0 z"
       id="text2462"
       inkscape:connector-curvature="0" />
    <path
       style="font-size:72px;font-style:normal;font-variant:normal;font-weight:normal;font-stretch:normal;text-align:start;line-height:125%;writing-mode:lr-tb;text-anchor:start;fill:#ffffff;fill-opacity:1;stroke:none;font-family:UltraCondensedSansSerif;-inkscape-font-specification:UltraCondensedSansSerif"
       d="m 1857.5633,-64.509861 c -10e-5,-3.8945 -1.3835,-7.952661 -4.1501,-12.174285 -2.7667,-4.221493 -7.6137,-6.332272 -14.5409,-6.332371 -6.4485,9.9e-5 -11.1723,2.029064 -14.1712,6.087127 -2.999,4.058128 -4.4985,8.198003 -4.4985,12.419529 0,3.894566 1.4995,7.870913 4.4985,11.929008 2.9989,4.058127 7.7227,6.087126 14.1712,6.087126 6.4626,0 11.0772,-2.028999 13.8439,-6.087126 2.7667,-4.058095 4.3824,-8.034442 4.8471,-11.929008 l 0,0 z m 0,91.091451 c 0.9291,-3.904567 -0.2213,-7.967563 -3.4532,-12.189155 -3.2314,-4.221657 -8.3106,-6.3324028 -15.2378,-6.3324028 -6.4485,0 -11.1723,2.1107458 -14.1712,6.3324028 -2.999,4.221592 -4.4985,8.284588 -4.4985,12.189155 0,3.8945 1.4995,7.870847 4.4985,11.928974 2.9989,4.058063 7.7227,6.087028 14.1712,6.087127 2.3091,0.326992 3.9247,0.326992 4.847,0 0.9222,-0.326993 1.8479,-0.65415 2.7772,-0.981109 0,0.654018 -0.3449,2.036432 -1.0348,4.14731 -0.69,2.110714 -1.7319,4.142212 -3.1257,6.094561 l -6.2303,7.298643 0,3.403978 c 7.3918,-3.567606 12.6998,-8.760338 15.9242,-15.578263 3.2242,-6.818089 5.0687,-14.285163 5.5334,-22.401221 l 0,0 z"
       id="text2466"
       inkscape:connector-curvature="0" />
    <path
       style="font-size:72px;font-style:normal;font-variant:normal;font-weight:normal;font-stretch:normal;text-align:start;line-height:125%;writing-mode:lr-tb;text-anchor:start;fill:#ffffff;fill-opacity:1;stroke:none;font-family:UltraCondensedSansSerif;-inkscape-font-specification:UltraCondensedSansSerif"
       d="m 1900.3366,-567.20268 -516.9659,0 c -0.4501,8e-5 -2.5269,8e-5 -6.2303,0 -3.6884,8e-5 -8.0708,0.48567 -13.1469,1.45676 -5.0753,0.97126 -10.3799,2.67575 -15.9137,5.11347 -5.5328,2.43796 -10.3763,6.0897 -14.5303,10.95539 -3.6884,4.22164 -6.3389,9.74388 -7.9515,16.56679 -1.6116,6.82297 -2.65,13.39813 -3.1152,19.72558 -0.464,6.32749 -0.5803,11.84727 -0.3484,16.55933 0.2326,4.71218 0.3488,7.06829 0.3484,7.0682 l 9.6939,0 c 6e-4,9e-5 -0.1158,-1.37988 -0.3483,-4.1398 -0.2321,-2.75986 0,-6.08961 0.6864,-9.98917 0.6903,-3.8995 1.9576,-8.12105 3.8015,-12.66481 1.8449,-4.5436 5.0762,-8.76273 9.6939,-12.65732 3.2247,-2.6062 7.2585,-4.31318 12.1015,-5.12094 4.844,-0.80754 9.807,-1.21139 14.8893,-1.21143 l 537.7265,0 c 8.7576,4e-5 16.3676,2.59637 22.8304,7.78909 3.6887,2.9235 6.4555,6.496 8.2999,10.71751 1.8444,4.22164 3.2278,8.27973 4.1501,12.17427 0.922,3.89464 1.4993,7.30363 1.7317,10.22696 0.2321,2.92346 0.3484,4.54868 0.3484,4.87564 l 9.6938,0 c 0,9e-5 0.1159,-2.19252 0.3484,-6.57765 0.2321,-4.38511 0.1159,-9.66204 -0.3484,-15.83095 -0.4646,-6.16887 -1.6192,-12.66228 -3.4635,-19.48032 -1.8446,-6.81792 -4.8436,-12.82575 -8.9971,-18.02356 -4.1536,-5.19765 -8.7682,-9.0154 -13.8438,-11.45335 -5.0759,-2.43774 -9.8031,-4.14222 -14.1819,-5.11348 -4.3788,-0.97109 -8.1839,-1.37489 -11.4151,-1.21143 -3.2314,0.16366 -5.0793,0.24551 -5.5439,0.24508 l 0,0 z"
       id="text2501"
       inkscape:connector-curvature="0" />
    <path
       style="font-size:26.21633911px;font-style:normal;font-variant:normal;font-weight:bold;font-stretch:normal;text-align:start;line-height:125%;writing-mode:lr-tb;text-anchor:start;fill:#cccccc;fill-opacity:1;stroke:none;font-family:Bitstream Vera Sans Mono;-inkscape-font-specification:Bitstream Vera Sans Mono Bold"
       d="m 345.7129,337.0037 c -6.31617,2.36708 -12.79625,4.14234 -19.4403,5.3259 -6.64423,1.18353 -13.69851,1.7753 -21.16279,1.7753 -23.54176,0 -41.81313,-5.85997 -54.81428,-17.57983 -13.00122,-11.71978 -19.50182,-28.2027 -19.50182,-49.44862 0,-21.13037 6.54166,-37.59878 19.62491,-49.40534 13.08315,-11.80638 31.31352,-17.70964 54.69119,-17.70978 7.46428,1.4e-4 14.51856,0.59199 21.16279,1.77534 6.64405,1.18369 13.12413,2.95899 19.4403,5.32593 l 0,17.92623 c -6.07015,-3.52165 -12.59122,-6.20628 -19.56334,-8.05385 -6.97235,-1.84735 -13.98559,-2.77105 -21.03975,-2.77119 -16.1593,1.4e-4 -28.25824,4.38786 -36.29678,13.16316 -8.03865,8.77564 -12.05795,22.02539 -12.05795,39.7495 0,17.66644 4.0193,30.88736 12.05795,39.66283 8.03854,8.77554 20.13748,13.16326 36.29678,13.16326 7.21814,0 14.293,-0.92377 21.22431,-2.77128 6.93112,-1.8474 13.39074,-4.53201 19.37878,-8.05375 l 0,17.92619 z"
       id="path3378"
       inkscape:connector-curvature="0" />
    <path
       style="font-size:26.21633911px;font-style:normal;font-variant:normal;font-weight:bold;font-stretch:normal;text-align:start;line-height:125%;writing-mode:lr-tb;text-anchor:start;fill:#cccccc;fill-opacity:1;stroke:none;font-family:Bitstream Vera Sans Mono;-inkscape-font-specification:Bitstream Vera Sans Mono Bold"
       d="m 441.14463,209.99532 c -20.67069,1e-4 -36.12641,5.40528 -46.25667,16.49 -10.13031,11.08487 -15.31877,27.95331 -15.31877,50.52707 0,22.6315 5.22939,39.50014 15.31877,50.52708 10.08921,11.02708 25.50388,16.4901 46.25667,16.49 20.75268,0 36.12623,-5.40528 46.25661,-16.49 10.13015,-11.08481 15.3186,-28.01112 15.31878,-50.52708 -1.8e-4,-22.5737 -5.18863,-39.4422 -15.31878,-50.52707 -10.13038,-11.08472 -25.50393,-16.4899 -46.25661,-16.49 z m 0,14.1645 c 12.63198,1e-4 21.4962,4.12142 27.03308,12.26179 5.53671,8.14056 8.41022,21.5965 8.41033,40.59078 -2.3e-4,18.99432 -2.87362,32.69073 -8.41033,40.80222 -5.53688,8.11158 -14.4011,12.05036 -27.03308,12.05036 -12.55011,0 -21.79671,-4.12146 -27.33347,-12.26179 -5.53676,-8.14037 -8.11006,-21.65434 -8.10994,-40.59079 0,-18.99418 2.57318,-32.45032 8.10994,-40.59078 5.53676,-8.14028 14.78336,-12.26172 27.33347,-12.26179 z"
       id="path3374"
       inkscape:connector-curvature="0" />
    <path
       style="font-size:26.21633911px;font-style:normal;font-variant:normal;font-weight:bold;font-stretch:normal;text-align:start;line-height:125%;writing-mode:lr-tb;text-anchor:start;fill:#cccccc;fill-opacity:1;stroke:none;font-family:Bitstream Vera Sans Mono;-inkscape-font-specification:Bitstream Vera Sans Mono Bold"
       d="m 533.65791,212.32085 0,129.17169 37.2456,0 c 28.05301,0 48.88779,-5.16578 62.17618,-15.64438 13.28818,-10.47856 19.82424,-26.78164 19.82424,-48.83577 -1.3e-4,-22.16956 -6.53606,-38.53958 -19.82424,-49.04722 -13.28839,-10.50732 -34.12317,-15.64419 -62.17618,-15.64432 l -37.2456,0 z m 24.93053,14.37585 12.01472,0 c 20.99872,1e-4 35.60981,3.53656 43.85371,10.78198 8.24351,7.24557 12.31498,20.42396 12.31507,39.53371 -9e-5,18.93655 -4.03062,32.07678 -12.31507,39.32233 -8.28479,7.24555 -22.93694,10.78187 -43.85371,10.7819 l -12.01472,0 0,-100.41992 z"
       id="path3370"
       inkscape:connector-curvature="0" />
    <path
       style="font-size:26.21633911px;font-style:normal;font-variant:normal;font-weight:bold;font-stretch:normal;text-align:start;line-height:125%;writing-mode:lr-tb;text-anchor:start;fill:#cccccc;fill-opacity:1;stroke:none;font-family:Bitstream Vera Sans Mono;-inkscape-font-specification:Bitstream Vera Sans Mono Bold"
       d="m 693.17718,212.2996 102,0 0,14.72199 -38.5115,0 0,99.84988 38.5115,0 0,14.722 -102,0 0,-14.722 38.51146,0 0,-99.84988 -38.51146,0 0,-14.72199 z"
       id="path3368"
       inkscape:connector-curvature="0" />
    <path
       style="font-size:26.21633911px;font-style:normal;font-variant:normal;font-weight:bold;font-stretch:normal;text-align:start;line-height:125%;writing-mode:lr-tb;text-anchor:start;fill:#cccccc;fill-opacity:1;stroke:none;font-family:Bitstream Vera Sans Mono;-inkscape-font-specification:Bitstream Vera Sans Mono Bold"
       d="m 837.13369,212.2996 31.49818,0 62.01211,106.43147 0,-106.43147 23.99269,0 0,129.29387 -31.49814,0 -62.01206,-106.43147 0,106.43147 -23.99278,0 0,-129.29387 z"
       id="path3366"
       inkscape:connector-curvature="0" />
    <path
       style="font-size:26.21633911px;font-style:normal;font-variant:normal;font-weight:bold;font-stretch:normal;text-align:start;line-height:125%;writing-mode:lr-tb;text-anchor:start;fill:#cccccc;fill-opacity:1;stroke:none;font-family:Bitstream Vera Sans Mono;-inkscape-font-specification:Bitstream Vera Sans Mono Bold"
       d="m 1107.4521,330.94171 c -6.6443,4.32996 -14.1292,7.60639 -22.4548,9.82908 -8.3258,2.22276 -17.3282,3.33411 -27.0072,3.33411 -23.2957,0 -41.4235,-5.87439 -54.3836,-17.62312 -12.96021,-11.74873 -19.44029,-28.21714 -19.44029,-49.40533 0,-21.13037 6.56207,-37.59878 19.68639,-49.40534 13.1242,-11.80638 31.375,-17.70964 54.7526,-17.70978 7.7104,1.4e-4 15.0929,0.76515 22.1472,2.29494 7.0542,1.53009 13.8624,3.85384 20.4246,6.97136 l 0,17.92616 c -6.6443,-4.44536 -13.4524,-7.7217 -20.4246,-9.82915 -6.9724,-2.10713 -14.3547,-3.16071 -22.1472,-3.16085 -16.1592,1.4e-4 -28.2787,4.40227 -36.3582,13.20652 -8.0797,8.80445 -12.1194,22.03982 -12.1194,39.70614 0,17.95514 3.9167,31.2482 11.7503,39.87929 7.8335,8.63116 19.8708,12.9468 36.1122,12.9468 5.4957,0 10.3147,-0.44746 14.4572,-1.34238 4.1422,-0.89479 7.8949,-2.29483 11.258,-4.20008 l 0,-34.72666 -26.6995,0 0,-14.37554 50.4463,0 0,55.68383 z"
       id="path3364"
       inkscape:connector-curvature="0" />
    <path
       style="font-size:26.21633911px;font-style:normal;font-variant:normal;font-weight:bold;font-stretch:normal;text-align:start;line-height:125%;writing-mode:lr-tb;text-anchor:start;fill:#d40000;fill-opacity:1;stroke:none;font-family:Bitstream Vera Sans Mono;-inkscape-font-specification:Bitstream Vera Sans Mono Bold"
       d="m 1144.364,234.81563 0,-22.51603 109.3823,0 0,22.51603 -36.5428,0 0,84.26188 36.5428,0 0,22.51596 -109.3823,0 0,-22.51596 36.5428,0 0,-84.26188 -36.5428,0 z"
       id="path3362"
       inkscape:connector-curvature="0" />
    <path
       style="font-size:26.21633911px;font-style:normal;font-variant:normal;font-weight:bold;font-stretch:normal;text-align:start;line-height:125%;writing-mode:lr-tb;text-anchor:start;fill:#d40000;fill-opacity:1;stroke:none;font-family:Bitstream Vera Sans Mono;-inkscape-font-specification:Bitstream Vera Sans Mono Bold"
       d="m 1289.4279,212.2996 39.0037,0 51.1845,93.96111 0,-93.96111 31.9903,0 0,129.29387 -38.7576,0 -51.4306,-93.96102 0,93.96102 -31.9903,0 0,-129.29387 z"
       id="path3360"
       inkscape:connector-curvature="0" />
    <path
       style="font-size:26.21633911px;font-style:normal;font-variant:normal;font-weight:bold;font-stretch:normal;text-align:start;line-height:125%;writing-mode:lr-tb;text-anchor:start;fill:#d40000;fill-opacity:1;stroke:none;font-family:Bitstream Vera Sans Mono;-inkscape-font-specification:Bitstream Vera Sans Mono Bold"
       d="m 1561.4688,341.59347 -114.4269,0 0,-129.29387 114.4269,0 0,22.51603 -78.1302,0 0,27.88522 70.7479,0 0,22.51603 -70.7479,0 0,33.86063 78.1302,0 0,22.51596 z"
       id="path3358"
       inkscape:connector-curvature="0" />
    <path
       style="font-size:26.21633911px;font-style:normal;font-variant:normal;font-weight:bold;font-stretch:normal;text-align:start;line-height:125%;writing-mode:lr-tb;text-anchor:start;fill:#d40000;fill-opacity:1;stroke:none;font-family:Bitstream Vera Sans Mono;-inkscape-font-specification:Bitstream Vera Sans Mono Bold"
       d="m 1594.2568,212.32085 0,129.17169 36.3445,0 0,-50.9499 11.7143,0 c 8.7767,7e-5 16.3478,4.83038 22.828,14.58732 1.0663,1.61657 1.7466,2.88174 2.4029,3.80538 l 22.2273,32.5572 39.9489,0 -33.3409,-46.29887 c -3.8552,-5.42683 -6.9461,-9.11681 -9.6117,-10.99333 -2.666,-1.87626 -6.0027,-3.07435 -9.6118,-3.59396 11.5655,-1.03917 20.5804,-4.25975 26.7327,-9.5135 6.1519,-5.25366 9.3114,-12.24999 9.3114,-21.14099 0,-13.27863 -5.325,-22.86299 -15.6191,-28.75185 -10.2944,-5.88869 -27.1385,-8.87906 -50.7621,-8.87919 l -52.5644,0 z m 36.3445,21.35241 17.121,0 c 10.0071,1.3e-4 17.0608,1.51479 21.326,4.2282 4.2654,2.71358 6.6082,7.23735 6.6082,13.53025 -10e-5,6.29303 -2.3018,10.78799 -6.6082,13.53029 -4.3064,2.74245 -11.401,4.01684 -21.326,4.01681 l -17.121,0 0,-35.30555 z"
       id="path3356"
       inkscape:connector-curvature="0" />
    <path
       style="font-size:26.21633911px;font-style:normal;font-variant:normal;font-weight:bold;font-stretch:normal;text-align:start;line-height:125%;writing-mode:lr-tb;text-anchor:start;fill:#d40000;fill-opacity:1;stroke:none;font-family:Bitstream Vera Sans Mono;-inkscape-font-specification:Bitstream Vera Sans Mono Bold"
       d="m 1823.5435,341.59347 -36.2968,0 0,-106.95111 -46.6321,0 0,-22.34276 129.5609,0 0,22.34276 -46.632,0 0,106.95111 z"
       id="path3352"
       inkscape:connector-curvature="0" />
    <path
       style="font-size:26.21633911px;font-style:normal;font-variant:normal;font-weight:bold;font-stretch:normal;text-align:start;line-height:125%;writing-mode:lr-tb;text-anchor:start;fill:#d40000;fill-opacity:1;stroke:none;font-family:Bitstream Vera Sans Mono;-inkscape-font-specification:Bitstream Vera Sans Mono Bold"
       d="m 1902.289,234.81563 0,-22.51603 109.3823,0 0,22.51603 -36.5428,0 0,84.26188 36.5428,0 0,22.51596 -109.3823,0 0,-22.51596 36.5428,0 0,-84.26188 -36.5428,0 z"
       id="path3350"
       inkscape:connector-curvature="0" />
    <path
       style="font-size:26.21633911px;font-style:normal;font-variant:normal;font-weight:bold;font-stretch:normal;text-align:start;line-height:125%;writing-mode:lr-tb;text-anchor:start;fill:#d40000;fill-opacity:1;stroke:none;font-family:Bitstream Vera Sans Mono;-inkscape-font-specification:Bitstream Vera Sans Mono Bold"
       d="m 2086.2593,212.32085 -49.5607,129.17169 36.3445,0 11.1137,-31.92295 48.6595,0 11.1136,31.92295 36.3445,0 -49.5607,-129.17169 -44.4544,0 z m 22.2272,23.25511 17.121,53.06401 -34.2419,0 17.1209,-53.06401 z"
       id="text2511"
       inkscape:connector-curvature="0" />
  </g>
</svg>
